<svg xmlns="http://www.w3.org/2000/svg" id="export" class="canvas" preserveAspectRatio="xMidYMid meet" style="" width="314" height="892"><rect id="background" fill="#fff" pointer-events="all" width="314" height="892"/><g id="origin" transform="translate(14.258203125000001, 14.258203125000001) scale(1)"><g id="clusters" class="clusters"/><g id="edge-paths" class="edge-paths" style="pointer-events: none;"><defs><marker id="arrowhead" viewBox="0 0 10 10" refX="9" refY="5" markerUnits="strokeWidth" markerWidth="8" markerHeight="6" orient="auto" style="fill: rgb(0, 0, 0);"><path d="M 0 0 L 10 5 L 0 10 L 4 5 z" style="stroke-width: 1;"/></marker><marker id="arrowhead-select" viewBox="0 0 10 10" refX="9" refY="5" markerUnits="strokeWidth" markerWidth="8" markerHeight="6" orient="auto" style="fill: rgba(220, 0, 0, 0.9);"><path d="M 0 0 L 10 5 L 0 10 L 4 5 z" style="stroke-width: 1;"/></marker><marker id="arrowhead-hover" viewBox="0 0 10 10" refX="9" refY="5" markerUnits="strokeWidth" markerWidth="8" markerHeight="6" orient="auto" style="fill: rgba(220, 0, 0, 0.9);"><path d="M 0 0 L 10 5 L 0 10 L 4 5 z" style="stroke-width: 1;"/></marker></defs><path id="edge-onnx::Gemm_0" class="edge-path" d="M167.71875,21L167.71875,22.666666666666668C167.71875,24.333333333333332,167.71875,27.666666666666668,167.71875,32.833333333333336C167.71875,38,167.71875,45,167.71875,52C167.71875,59,167.71875,66,167.71875,71.16666666666667C167.71875,76.33333333333333,167.71875,79.66666666666667,167.71875,81.33333333333333L167.71875,83" style="stroke: rgb(0, 0, 0); stroke-width: 1px; fill: none; marker-end: url(&quot;#arrowhead&quot;);"/><path id="edge-/fc1/Gemm_output_0" class="edge-path" d="M167.71875,136L167.71875,137.66666666666666C167.71875,139.33333333333334,167.71875,142.66666666666666,167.71875,146C167.71875,149.33333333333334,167.71875,152.66666666666666,167.71875,154.33333333333334L167.71875,156" style="stroke: rgb(0, 0, 0); stroke-width: 1px; fill: none; marker-end: url(&quot;#arrowhead&quot;);"/><path id="edge-/Relu_output_0" class="edge-path" d="M186.109375,172.2668499043977L193.94010416666666,174.72237492033142C201.77083333333334,177.17789993626513,217.43229166666666,182.0889499681326,225.26302083333334,190.62780831739963C233.09375,199.16666666666666,233.09375,211.33333333333334,233.09375,225.33333333333334C233.09375,239.33333333333334,233.09375,255.16666666666666,233.09375,269.9166666666667C233.09375,284.6666666666667,233.09375,298.3333333333333,233.09375,310.1666666666667C233.09375,322,233.09375,332,233.09375,340.4166666666667C233.09375,348.8333333333333,233.09375,355.6666666666667,233.09375,362.5C233.09375,369.3333333333333,233.09375,376.1666666666667,233.09375,383C233.09375,389.8333333333333,233.09375,396.6666666666667,233.09375,403.5C233.09375,410.3333333333333,233.09375,417.1666666666667,233.09375,422.25C233.09375,427.3333333333333,233.09375,430.6666666666667,233.09375,432.3333333333333L233.09375,434" style="stroke: rgb(0, 0, 0); stroke-width: 1px; fill: none; marker-end: url(&quot;#arrowhead&quot;);"/><path id="edge-/Relu_output_0" class="edge-path" d="M152.99314024390245,177L150.6557418699187,178.66666666666666C148.31834349593495,180.33333333333334,143.64354674796746,183.66666666666666,141.30614837398375,187C138.96875,190.33333333333334,138.96875,193.66666666666666,138.96875,195.33333333333334L138.96875,197" style="stroke: rgb(0, 0, 0); stroke-width: 1px; fill: none; marker-end: url(&quot;#arrowhead&quot;);"/><path id="edge-mu" class="edge-path" d="M218.4599095394737,487L216.52713815789477,490.5C214.5943667763158,494,210.72882401315792,501,200.79995888157896,508.3528023422562C190.87109375,515.7056046845124,174.87890625,523.4112093690248,166.8828125,527.2640117112811L158.88671875,531.1168140535373" style="stroke: rgb(0, 0, 0); stroke-width: 1px; fill: none; marker-end: url(&quot;#arrowhead&quot;);"/><path id="edge-mu" class="edge-path" d="M245.38050986842106,487L247.0032894736842,490.5C248.62606907894738,494,251.8716282894737,501,253.49440789473684,508C255.1171875,515,255.1171875,522,255.1171875,525.5L255.1171875,529" style="stroke: rgb(0, 0, 0); stroke-width: 1px; fill: none; marker-end: url(&quot;#arrowhead&quot;);"/><path id="edge-log_var" class="edge-path" d="M115.50230263157894,250L112.40296052631578,253.5C109.30361842105263,257,103.10493421052631,264,100.00559210526315,271C96.90625,278,96.90625,285,96.90625,288.5L96.90625,292" style="stroke: rgb(0, 0, 0); stroke-width: 1px; fill: none; marker-end: url(&quot;#arrowhead&quot;);"/><path id="edge-log_var" class="edge-path" d="M162.43519736842106,250L165.53453947368422,253.5C168.63388157894738,257,174.8325657894737,264,177.93190789473684,272.5799153645833C181.03125,281.1598307291667,181.03125,291.3196614583333,181.03125,296.3995768229167L181.03125,301.4794921875" style="stroke: rgb(0, 0, 0); stroke-width: 1px; fill: none; marker-end: url(&quot;#arrowhead&quot;);"/><path id="edge-/Div_output_0" class="edge-path" d="M96.90625,332L96.90625,333.6666666666667C96.90625,335.3333333333333,96.90625,338.6666666666667,96.90625,342C96.90625,345.3333333333333,96.90625,348.6666666666667,96.90625,350.3333333333333L96.90625,352" style="stroke: rgb(0, 0, 0); stroke-width: 1px; fill: none; marker-end: url(&quot;#arrowhead&quot;);"/><path id="edge-/Exp_output_0" class="edge-path" d="M80.2890625,371.241680032077L76.56380208333333,373.2014000267309C72.83854166666667,375.1611200213847,65.38802083333333,379.08056001069235,61.662760416666664,382.70694667201286C57.9375,386.3333333333333,57.9375,389.6666666666667,57.9375,391.3333333333333L57.9375,393" style="stroke: rgb(0, 0, 0); stroke-width: 1px; fill: none; marker-end: url(&quot;#arrowhead&quot;);"/><path id="edge-/Exp_output_0" class="edge-path" d="M113.5234375,371.241680032077L117.24869791666667,373.2014000267309C120.97395833333333,375.1611200213847,128.42447916666666,379.08056001069235,132.14973958333334,384.45694667201286C135.875,389.8333333333333,135.875,396.6666666666667,135.875,403.5C135.875,410.3333333333333,135.875,417.1666666666667,131.24857305936072,424.9166666666667C126.62214611872146,432.6666666666667,117.36929223744293,441.3333333333333,112.74286529680366,445.6666666666667L108.11643835616438,450" style="stroke: rgb(0, 0, 0); stroke-width: 1px; fill: none; marker-end: url(&quot;#arrowhead&quot;);"/><path id="edge-/RandomNormalLike_output_0" class="edge-path" d="M57.9375,414L57.9375,415.6666666666667C57.9375,417.3333333333333,57.9375,420.6666666666667,62.56392694063927,426.6666666666667C67.19035388127854,432.6666666666667,76.44320776255708,441.3333333333333,81.06963470319634,445.6666666666667L85.69606164383562,450" style="stroke: rgb(0, 0, 0); stroke-width: 1px; fill: none; marker-end: url(&quot;#arrowhead&quot;);"/><path id="edge-/Mul_output_0" class="edge-path" d="M96.90625,471L96.90625,477.1666666666667C96.90625,483.3333333333333,96.90625,495.6666666666667,101.85980902777777,505.3333333333333C106.81336805555556,515,116.72048611111113,522,121.6740451388889,525.5L126.62760416666667,529" style="stroke: rgb(0, 0, 0); stroke-width: 1px; fill: none; marker-end: url(&quot;#arrowhead&quot;);"/><path id="edge-onnx::Gemm_20" class="edge-path" d="M124.08984375,549.6911091741121L118.02669270833333,553.2425909784267C111.96354166666667,556.7940727827414,99.83723958333333,563.8970363913708,93.77408854166667,570.9485181956853C87.7109375,578,87.7109375,585,87.7109375,588.5L87.7109375,592" style="stroke: rgb(0, 0, 0); stroke-width: 1px; fill: none; marker-end: url(&quot;#arrowhead&quot;);"/><path id="edge-onnx::Gemm_20" class="edge-path" d="M158.88671875,549.6911091741121L164.94986979166666,553.2425909784267C171.01302083333334,556.7940727827414,183.13932291666666,563.8970363913708,189.20247395833334,573.6151848623521C195.265625,583.3333333333334,195.265625,595.6666666666666,195.265625,601.8333333333334L195.265625,608" style="stroke: rgb(0, 0, 0); stroke-width: 1px; fill: none; marker-end: url(&quot;#arrowhead&quot;);"/><path id="edge-/fc4/Gemm_output_0" class="edge-path" d="M87.7109375,645L87.7109375,646.6666666666666C87.7109375,648.3333333333334,87.7109375,651.6666666666666,87.7109375,655C87.7109375,658.3333333333334,87.7109375,661.6666666666666,87.7109375,663.3333333333334L87.7109375,665" style="stroke: rgb(0, 0, 0); stroke-width: 1px; fill: none; marker-end: url(&quot;#arrowhead&quot;);"/><path id="edge-/Relu_1_output_0" class="edge-path" d="M87.7109375,686L87.7109375,687.6666666666666C87.7109375,689.3333333333334,87.7109375,692.6666666666666,87.7109375,696C87.7109375,699.3333333333334,87.7109375,702.6666666666666,87.7109375,704.3333333333334L87.7109375,706" style="stroke: rgb(0, 0, 0); stroke-width: 1px; fill: none; marker-end: url(&quot;#arrowhead&quot;);"/><path id="edge-/fc5/Gemm_output_0" class="edge-path" d="M87.7109375,759L87.7109375,760.6666666666666C87.7109375,762.3333333333334,87.7109375,765.6666666666666,87.7109375,769C87.7109375,772.3333333333334,87.7109375,775.6666666666666,87.7109375,777.3333333333334L87.7109375,779" style="stroke: rgb(0, 0, 0); stroke-width: 1px; fill: none; marker-end: url(&quot;#arrowhead&quot;);"/><path id="edge-24" class="edge-path" d="M87.7109375,800.041015625L87.7109375,803.541015625C87.7109375,807.041015625,87.7109375,814.041015625,87.7109375,821.041015625C87.7109375,828.041015625,87.7109375,835.041015625,87.7109375,838.541015625L87.7109375,842.041015625" style="stroke: rgb(0, 0, 0); stroke-width: 1px; fill: none; marker-end: url(&quot;#arrowhead&quot;);"/></g><g id="edge-labels" class="edge-labels"><text class="edge-label" id="edge-label-edge-onnx::Gemm_0" style="opacity: 1; font-family: -apple-system, BlinkMacSystemFont, &quot;Segoe WPC&quot;, &quot;Segoe UI&quot;, Ubuntu, &quot;Droid Sans&quot;, sans-serif, &quot;PingFang SC&quot;; font-size: 10px;" transform="translate(172.71875,46)"><tspan xml:space="preserve" dy="1em" x="1">16×784</tspan></text><text class="edge-label" id="edge-label-edge-mu" style="opacity: 1; font-family: -apple-system, BlinkMacSystemFont, &quot;Segoe WPC&quot;, &quot;Segoe UI&quot;, Ubuntu, &quot;Droid Sans&quot;, sans-serif, &quot;PingFang SC&quot;; font-size: 10px;" transform="translate(211.86328125,502)"><tspan xml:space="preserve" dy="1em" x="1">16×3</tspan></text><text class="edge-label" id="edge-label-edge-mu" style="opacity: 1; font-family: -apple-system, BlinkMacSystemFont, &quot;Segoe WPC&quot;, &quot;Segoe UI&quot;, Ubuntu, &quot;Droid Sans&quot;, sans-serif, &quot;PingFang SC&quot;; font-size: 10px;" transform="translate(260.1171875,502)"><tspan xml:space="preserve" dy="1em" x="1">16×3</tspan></text><text class="edge-label" id="edge-label-edge-log_var" style="opacity: 1; font-family: -apple-system, BlinkMacSystemFont, &quot;Segoe WPC&quot;, &quot;Segoe UI&quot;, Ubuntu, &quot;Droid Sans&quot;, sans-serif, &quot;PingFang SC&quot;; font-size: 10px;" transform="translate(101.90625,265)"><tspan xml:space="preserve" dy="1em" x="1">16×3</tspan></text><text class="edge-label" id="edge-label-edge-log_var" style="opacity: 1; font-family: -apple-system, BlinkMacSystemFont, &quot;Segoe WPC&quot;, &quot;Segoe UI&quot;, Ubuntu, &quot;Droid Sans&quot;, sans-serif, &quot;PingFang SC&quot;; font-size: 10px;" transform="translate(186.03125,265)"><tspan xml:space="preserve" dy="1em" x="1">16×3</tspan></text><text class="edge-label" id="edge-label-edge-onnx::Gemm_20" style="opacity: 1; font-family: -apple-system, BlinkMacSystemFont, &quot;Segoe WPC&quot;, &quot;Segoe UI&quot;, Ubuntu, &quot;Droid Sans&quot;, sans-serif, &quot;PingFang SC&quot;; font-size: 10px;" transform="translate(92.7109375,565)"><tspan xml:space="preserve" dy="1em" x="1">16×3</tspan></text><text class="edge-label" id="edge-label-edge-onnx::Gemm_20" style="opacity: 1; font-family: -apple-system, BlinkMacSystemFont, &quot;Segoe WPC&quot;, &quot;Segoe UI&quot;, Ubuntu, &quot;Droid Sans&quot;, sans-serif, &quot;PingFang SC&quot;; font-size: 10px;" transform="translate(200.265625,565)"><tspan xml:space="preserve" dy="1em" x="1">16×3</tspan></text><text class="edge-label" id="edge-label-edge-24" style="opacity: 1; font-family: -apple-system, BlinkMacSystemFont, &quot;Segoe WPC&quot;, &quot;Segoe UI&quot;, Ubuntu, &quot;Droid Sans&quot;, sans-serif, &quot;PingFang SC&quot;; font-size: 10px;" transform="translate(92.7109375,815.041015625)"><tspan xml:space="preserve" dy="1em" x="1">16×784</tspan></text></g><g id="nodes" class="nodes"><g id="input-name-onnx::Gemm_0" class="node graph-input" style="" transform="translate(121.2890625,0)"><g class="node-item graph-item-input" transform="translate(0,0)"><path d="M5,0h82.859375a5,5 0 0 1 5,5v11a5,5 0 0 1 -5,5h-82.859375a5,5 0 0 1 -5,-5v-11a5,5 0 0 1 5,-5z" style="stroke: rgb(0, 0, 0); fill: rgb(238, 238, 238); stroke-width: 0;"/><text x="6" y="15" style="font-family: -apple-system, BlinkMacSystemFont, &quot;Segoe WPC&quot;, &quot;Segoe UI&quot;, Ubuntu, &quot;Droid Sans&quot;, sans-serif, &quot;PingFang SC&quot;; font-size: 11px; text-rendering: geometricprecision; user-select: none;">onnx::Gemm_0</text><title>float32[16,784]</title></g><path class="node node-border" d="M5,0h82.859375a5,5 0 0 1 5,5v11a5,5 0 0 1 -5,5h-82.859375a5,5 0 0 1 -5,-5v-11a5,5 0 0 1 5,-5z" style="stroke: rgb(51, 51, 51); fill: none; stroke-width: 1px;"/></g><g id="node-name-/fc1/Gemm" class="node graph-node" style="" transform="translate(129.0546875,83)"><g class="node-item node-item-type node-item-type-layer" transform="translate(0,0)"><path d="M5,0h67.328125a5,5 0 0 1 5,5v16a0,0 0 0 1 0,0h-77.328125a0,0 0 0 1 0,0v-16a5,5 0 0 1 5,-5z" style="stroke: rgb(0, 0, 0); fill: rgb(51, 85, 136); stroke-width: 0;"/><text x="6" y="15" style="font-family: -apple-system, BlinkMacSystemFont, &quot;Segoe WPC&quot;, &quot;Segoe UI&quot;, Ubuntu, &quot;Droid Sans&quot;, sans-serif, &quot;PingFang SC&quot;; font-size: 11px; text-rendering: geometricprecision; user-select: none; fill: rgb(255, 255, 255);">Gemm</text><title>/fc1/Gemm</title></g><g class="node-argument-list" transform="translate(0,21)"><path d="M0,0h77.328125a0,0 0 0 1 0,0v27a5,5 0 0 1 -5,5h-67.328125a5,5 0 0 1 -5,-5v-27a0,0 0 0 1 0,0z" style="stroke: rgb(0, 0, 0); fill: rgb(255, 255, 255); stroke-width: 0;"/><g class="node-argument"><rect rx="3" ry="3" x="3" y="3" width="71.328125" height="13" style="fill: transparent;"/><text xml:space="preserve" x="6" y="13" style="font-family: -apple-system, BlinkMacSystemFont, &quot;Segoe WPC&quot;, &quot;Segoe UI&quot;, Ubuntu, &quot;Droid Sans&quot;, sans-serif, &quot;PingFang SC&quot;; font-size: 9px; font-weight: normal; text-rendering: geometricprecision; user-select: none;"><title>float32[400,784]</title><tspan style="font-weight: bold;">B</tspan><tspan>〈400×784〉</tspan></text></g><g class="node-argument"><rect rx="3" ry="3" x="3" y="16" width="71.328125" height="13" style="fill: transparent;"/><text xml:space="preserve" x="6" y="26" style="font-family: -apple-system, BlinkMacSystemFont, &quot;Segoe WPC&quot;, &quot;Segoe UI&quot;, Ubuntu, &quot;Droid Sans&quot;, sans-serif, &quot;PingFang SC&quot;; font-size: 9px; font-weight: normal; text-rendering: geometricprecision; user-select: none;"><title>float32[400]</title><tspan style="font-weight: bold;">C</tspan><tspan>〈400〉</tspan></text></g><line class="node" x1="0" x2="77.328125" y1="0" y2="0" style="stroke: rgb(51, 51, 51); fill: none; stroke-width: 1px;"/></g><path class="node node-border" d="M5,0h67.328125a5,5 0 0 1 5,5v43a5,5 0 0 1 -5,5h-67.328125a5,5 0 0 1 -5,-5v-43a5,5 0 0 1 5,-5z" style="stroke: rgb(51, 51, 51); fill: none; stroke-width: 1px;"/></g><g id="node-name-/Relu" class="node graph-node" style="" transform="translate(149.328125,156)"><g class="node-item node-item-type node-item-type-activation" transform="translate(0,0)"><path d="M5,0h26.78125a5,5 0 0 1 5,5v11a5,5 0 0 1 -5,5h-26.78125a5,5 0 0 1 -5,-5v-11a5,5 0 0 1 5,-5z" style="stroke: rgb(0, 0, 0); fill: rgb(112, 41, 33); stroke-width: 0;"/><text x="6" y="15" style="font-family: -apple-system, BlinkMacSystemFont, &quot;Segoe WPC&quot;, &quot;Segoe UI&quot;, Ubuntu, &quot;Droid Sans&quot;, sans-serif, &quot;PingFang SC&quot;; font-size: 11px; text-rendering: geometricprecision; user-select: none; fill: rgb(255, 255, 255);">Relu</text><title>/Relu</title></g><path class="node node-border" d="M5,0h26.78125a5,5 0 0 1 5,5v11a5,5 0 0 1 -5,5h-26.78125a5,5 0 0 1 -5,-5v-11a5,5 0 0 1 5,-5z" style="stroke: rgb(51, 51, 51); fill: none; stroke-width: 1px;"/></g><g id="node-name-/fc2/Gemm" class="node graph-node" style="" transform="translate(195.59375,434)"><g class="node-item node-item-type node-item-type-layer" transform="translate(0,0)"><path d="M5,0h65a5,5 0 0 1 5,5v16a0,0 0 0 1 0,0h-75a0,0 0 0 1 0,0v-16a5,5 0 0 1 5,-5z" style="stroke: rgb(0, 0, 0); fill: rgb(51, 85, 136); stroke-width: 0;"/><text x="6" y="15" style="font-family: -apple-system, BlinkMacSystemFont, &quot;Segoe WPC&quot;, &quot;Segoe UI&quot;, Ubuntu, &quot;Droid Sans&quot;, sans-serif, &quot;PingFang SC&quot;; font-size: 11px; text-rendering: geometricprecision; user-select: none; fill: rgb(255, 255, 255);">Gemm</text><title>/fc2/Gemm</title></g><g class="node-argument-list" transform="translate(0,21)"><path d="M0,0h75a0,0 0 0 1 0,0v27a5,5 0 0 1 -5,5h-65a5,5 0 0 1 -5,-5v-27a0,0 0 0 1 0,0z" style="stroke: rgb(0, 0, 0); fill: rgb(255, 255, 255); stroke-width: 0;"/><g class="node-argument"><rect rx="3" ry="3" x="3" y="3" width="69" height="13" style="fill: transparent;"/><text xml:space="preserve" x="6" y="13" style="font-family: -apple-system, BlinkMacSystemFont, &quot;Segoe WPC&quot;, &quot;Segoe UI&quot;, Ubuntu, &quot;Droid Sans&quot;, sans-serif, &quot;PingFang SC&quot;; font-size: 9px; font-weight: normal; text-rendering: geometricprecision; user-select: none;"><title>float32[3,400]</title><tspan style="font-weight: bold;">B</tspan><tspan>〈3×400〉</tspan></text></g><g class="node-argument"><rect rx="3" ry="3" x="3" y="16" width="69" height="13" style="fill: transparent;"/><text xml:space="preserve" x="6" y="26" style="font-family: -apple-system, BlinkMacSystemFont, &quot;Segoe WPC&quot;, &quot;Segoe UI&quot;, Ubuntu, &quot;Droid Sans&quot;, sans-serif, &quot;PingFang SC&quot;; font-size: 9px; font-weight: normal; text-rendering: geometricprecision; user-select: none;"><title>float32[3]</title><tspan style="font-weight: bold;">C</tspan><tspan>〈3〉</tspan></text></g><line class="node" x1="0" x2="75" y1="0" y2="0" style="stroke: rgb(51, 51, 51); fill: none; stroke-width: 1px;"/></g><path class="node node-border" d="M5,0h65a5,5 0 0 1 5,5v43a5,5 0 0 1 -5,5h-65a5,5 0 0 1 -5,-5v-43a5,5 0 0 1 5,-5z" style="stroke: rgb(51, 51, 51); fill: none; stroke-width: 1px;"/></g><g id="node-name-/fc3/Gemm" class="node graph-node" style="" transform="translate(101.46875,197)"><g class="node-item node-item-type node-item-type-layer" transform="translate(0,0)"><path d="M5,0h65a5,5 0 0 1 5,5v16a0,0 0 0 1 0,0h-75a0,0 0 0 1 0,0v-16a5,5 0 0 1 5,-5z" style="stroke: rgb(0, 0, 0); fill: rgb(51, 85, 136); stroke-width: 0;"/><text x="6" y="15" style="font-family: -apple-system, BlinkMacSystemFont, &quot;Segoe WPC&quot;, &quot;Segoe UI&quot;, Ubuntu, &quot;Droid Sans&quot;, sans-serif, &quot;PingFang SC&quot;; font-size: 11px; text-rendering: geometricprecision; user-select: none; fill: rgb(255, 255, 255);">Gemm</text><title>/fc3/Gemm</title></g><g class="node-argument-list" transform="translate(0,21)"><path d="M0,0h75a0,0 0 0 1 0,0v27a5,5 0 0 1 -5,5h-65a5,5 0 0 1 -5,-5v-27a0,0 0 0 1 0,0z" style="stroke: rgb(0, 0, 0); fill: rgb(255, 255, 255); stroke-width: 0;"/><g class="node-argument"><rect rx="3" ry="3" x="3" y="3" width="69" height="13" style="fill: transparent;"/><text xml:space="preserve" x="6" y="13" style="font-family: -apple-system, BlinkMacSystemFont, &quot;Segoe WPC&quot;, &quot;Segoe UI&quot;, Ubuntu, &quot;Droid Sans&quot;, sans-serif, &quot;PingFang SC&quot;; font-size: 9px; font-weight: normal; text-rendering: geometricprecision; user-select: none;"><title>float32[3,400]</title><tspan style="font-weight: bold;">B</tspan><tspan>〈3×400〉</tspan></text></g><g class="node-argument"><rect rx="3" ry="3" x="3" y="16" width="69" height="13" style="fill: transparent;"/><text xml:space="preserve" x="6" y="26" style="font-family: -apple-system, BlinkMacSystemFont, &quot;Segoe WPC&quot;, &quot;Segoe UI&quot;, Ubuntu, &quot;Droid Sans&quot;, sans-serif, &quot;PingFang SC&quot;; font-size: 9px; font-weight: normal; text-rendering: geometricprecision; user-select: none;"><title>float32[3]</title><tspan style="font-weight: bold;">C</tspan><tspan>〈3〉</tspan></text></g><line class="node" x1="0" x2="75" y1="0" y2="0" style="stroke: rgb(51, 51, 51); fill: none; stroke-width: 1px;"/></g><path class="node node-border" d="M5,0h65a5,5 0 0 1 5,5v43a5,5 0 0 1 -5,5h-65a5,5 0 0 1 -5,-5v-43a5,5 0 0 1 5,-5z" style="stroke: rgb(51, 51, 51); fill: none; stroke-width: 1px;"/></g><g id="node-name-/Div" class="node graph-node" style="" transform="translate(59.40625,292)"><g class="node-item node-item-type" transform="translate(0,0)"><path d="M5,0h65a5,5 0 0 1 5,5v16a0,0 0 0 1 0,0h-75a0,0 0 0 1 0,0v-16a5,5 0 0 1 5,-5z" style="stroke: rgb(0, 0, 0); fill: rgb(0, 0, 0); stroke-width: 0;"/><text x="6" y="15" style="font-family: -apple-system, BlinkMacSystemFont, &quot;Segoe WPC&quot;, &quot;Segoe UI&quot;, Ubuntu, &quot;Droid Sans&quot;, sans-serif, &quot;PingFang SC&quot;; font-size: 11px; text-rendering: geometricprecision; user-select: none; fill: rgb(255, 255, 255);">Div</text><title>/Div</title></g><g class="node-argument-list" transform="translate(0,21)"><path d="M0,0h75a0,0 0 0 1 0,0v14a5,5 0 0 1 -5,5h-65a5,5 0 0 1 -5,-5v-14a0,0 0 0 1 0,0z" style="stroke: rgb(0, 0, 0); fill: rgb(255, 255, 255); stroke-width: 0;"/><g class="node-argument"><rect rx="3" ry="3" x="3" y="3" width="69" height="13" style="fill: transparent;"/><text xml:space="preserve" x="6" y="13" style="font-family: -apple-system, BlinkMacSystemFont, &quot;Segoe WPC&quot;, &quot;Segoe UI&quot;, Ubuntu, &quot;Droid Sans&quot;, sans-serif, &quot;PingFang SC&quot;; font-size: 9px; font-weight: normal; text-rendering: geometricprecision; user-select: none;"><title>float32</title><tspan>B</tspan><tspan> = 2</tspan></text></g><line class="node" x1="0" x2="75" y1="0" y2="0" style="stroke: rgb(51, 51, 51); fill: none; stroke-width: 1px;"/></g><path class="node node-border" d="M5,0h65a5,5 0 0 1 5,5v30a5,5 0 0 1 -5,5h-65a5,5 0 0 1 -5,-5v-30a5,5 0 0 1 5,-5z" style="stroke: rgb(51, 51, 51); fill: none; stroke-width: 1px;"/></g><g id="node-name-/Exp" class="node graph-node" style="" transform="translate(80.2890625,352)"><g class="node-item node-item-type" transform="translate(0,0)"><path d="M5,0h23.234375a5,5 0 0 1 5,5v11a5,5 0 0 1 -5,5h-23.234375a5,5 0 0 1 -5,-5v-11a5,5 0 0 1 5,-5z" style="stroke: rgb(0, 0, 0); fill: rgb(0, 0, 0); stroke-width: 0;"/><text x="6" y="15" style="font-family: -apple-system, BlinkMacSystemFont, &quot;Segoe WPC&quot;, &quot;Segoe UI&quot;, Ubuntu, &quot;Droid Sans&quot;, sans-serif, &quot;PingFang SC&quot;; font-size: 11px; text-rendering: geometricprecision; user-select: none; fill: rgb(255, 255, 255);">Exp</text><title>/Exp</title></g><path class="node node-border" d="M5,0h23.234375a5,5 0 0 1 5,5v11a5,5 0 0 1 -5,5h-23.234375a5,5 0 0 1 -5,-5v-11a5,5 0 0 1 5,-5z" style="stroke: rgb(51, 51, 51); fill: none; stroke-width: 1px;"/></g><g id="node-name-/RandomNormalLike" class="node graph-node" style="" transform="translate(0,393)"><g class="node-item node-item-type" transform="translate(0,0)"><path d="M5,0h105.875a5,5 0 0 1 5,5v11a5,5 0 0 1 -5,5h-105.875a5,5 0 0 1 -5,-5v-11a5,5 0 0 1 5,-5z" style="stroke: rgb(0, 0, 0); fill: rgb(0, 0, 0); stroke-width: 0;"/><text x="6" y="15" style="font-family: -apple-system, BlinkMacSystemFont, &quot;Segoe WPC&quot;, &quot;Segoe UI&quot;, Ubuntu, &quot;Droid Sans&quot;, sans-serif, &quot;PingFang SC&quot;; font-size: 11px; text-rendering: geometricprecision; user-select: none; fill: rgb(255, 255, 255);">RandomNormalLike</text><title>/RandomNormalLike</title></g><path class="node node-border" d="M5,0h105.875a5,5 0 0 1 5,5v11a5,5 0 0 1 -5,5h-105.875a5,5 0 0 1 -5,-5v-11a5,5 0 0 1 5,-5z" style="stroke: rgb(51, 51, 51); fill: none; stroke-width: 1px;"/></g><g id="node-name-/Mul" class="node graph-node" style="" transform="translate(80.3984375,450)"><g class="node-item node-item-type" transform="translate(0,0)"><path d="M5,0h23.015625a5,5 0 0 1 5,5v11a5,5 0 0 1 -5,5h-23.015625a5,5 0 0 1 -5,-5v-11a5,5 0 0 1 5,-5z" style="stroke: rgb(0, 0, 0); fill: rgb(0, 0, 0); stroke-width: 0;"/><text x="6" y="15" style="font-family: -apple-system, BlinkMacSystemFont, &quot;Segoe WPC&quot;, &quot;Segoe UI&quot;, Ubuntu, &quot;Droid Sans&quot;, sans-serif, &quot;PingFang SC&quot;; font-size: 11px; text-rendering: geometricprecision; user-select: none; fill: rgb(255, 255, 255);">Mul</text><title>/Mul</title></g><path class="node node-border" d="M5,0h23.015625a5,5 0 0 1 5,5v11a5,5 0 0 1 -5,5h-23.015625a5,5 0 0 1 -5,-5v-11a5,5 0 0 1 5,-5z" style="stroke: rgb(51, 51, 51); fill: none; stroke-width: 1px;"/></g><g id="node-name-/Add" class="node graph-node" style="" transform="translate(124.08984375,529)"><g class="node-item node-item-type" transform="translate(0,0)"><path d="M5,0h24.796875a5,5 0 0 1 5,5v11a5,5 0 0 1 -5,5h-24.796875a5,5 0 0 1 -5,-5v-11a5,5 0 0 1 5,-5z" style="stroke: rgb(0, 0, 0); fill: rgb(0, 0, 0); stroke-width: 0;"/><text x="6" y="15" style="font-family: -apple-system, BlinkMacSystemFont, &quot;Segoe WPC&quot;, &quot;Segoe UI&quot;, Ubuntu, &quot;Droid Sans&quot;, sans-serif, &quot;PingFang SC&quot;; font-size: 11px; text-rendering: geometricprecision; user-select: none; fill: rgb(255, 255, 255);">Add</text><title>/Add</title></g><path class="node node-border" d="M5,0h24.796875a5,5 0 0 1 5,5v11a5,5 0 0 1 -5,5h-24.796875a5,5 0 0 1 -5,-5v-11a5,5 0 0 1 5,-5z" style="stroke: rgb(51, 51, 51); fill: none; stroke-width: 1px;"/></g><g id="node-name-/fc4/Gemm" class="node graph-node" style="" transform="translate(50.2109375,592)"><g class="node-item node-item-type node-item-type-layer" transform="translate(0,0)"><path d="M5,0h65a5,5 0 0 1 5,5v16a0,0 0 0 1 0,0h-75a0,0 0 0 1 0,0v-16a5,5 0 0 1 5,-5z" style="stroke: rgb(0, 0, 0); fill: rgb(51, 85, 136); stroke-width: 0;"/><text x="6" y="15" style="font-family: -apple-system, BlinkMacSystemFont, &quot;Segoe WPC&quot;, &quot;Segoe UI&quot;, Ubuntu, &quot;Droid Sans&quot;, sans-serif, &quot;PingFang SC&quot;; font-size: 11px; text-rendering: geometricprecision; user-select: none; fill: rgb(255, 255, 255);">Gemm</text><title>/fc4/Gemm</title></g><g class="node-argument-list" transform="translate(0,21)"><path d="M0,0h75a0,0 0 0 1 0,0v27a5,5 0 0 1 -5,5h-65a5,5 0 0 1 -5,-5v-27a0,0 0 0 1 0,0z" style="stroke: rgb(0, 0, 0); fill: rgb(255, 255, 255); stroke-width: 0;"/><g class="node-argument"><rect rx="3" ry="3" x="3" y="3" width="69" height="13" style="fill: transparent;"/><text xml:space="preserve" x="6" y="13" style="font-family: -apple-system, BlinkMacSystemFont, &quot;Segoe WPC&quot;, &quot;Segoe UI&quot;, Ubuntu, &quot;Droid Sans&quot;, sans-serif, &quot;PingFang SC&quot;; font-size: 9px; font-weight: normal; text-rendering: geometricprecision; user-select: none;"><title>float32[400,3]</title><tspan style="font-weight: bold;">B</tspan><tspan>〈400×3〉</tspan></text></g><g class="node-argument"><rect rx="3" ry="3" x="3" y="16" width="69" height="13" style="fill: transparent;"/><text xml:space="preserve" x="6" y="26" style="font-family: -apple-system, BlinkMacSystemFont, &quot;Segoe WPC&quot;, &quot;Segoe UI&quot;, Ubuntu, &quot;Droid Sans&quot;, sans-serif, &quot;PingFang SC&quot;; font-size: 9px; font-weight: normal; text-rendering: geometricprecision; user-select: none;"><title>float32[400]</title><tspan style="font-weight: bold;">C</tspan><tspan>〈400〉</tspan></text></g><line class="node" x1="0" x2="75" y1="0" y2="0" style="stroke: rgb(51, 51, 51); fill: none; stroke-width: 1px;"/></g><path class="node node-border" d="M5,0h65a5,5 0 0 1 5,5v43a5,5 0 0 1 -5,5h-65a5,5 0 0 1 -5,-5v-43a5,5 0 0 1 5,-5z" style="stroke: rgb(51, 51, 51); fill: none; stroke-width: 1px;"/></g><g id="node-name-/Relu_1" class="node graph-node" style="" transform="translate(69.3203125,665)"><g class="node-item node-item-type node-item-type-activation" transform="translate(0,0)"><path d="M5,0h26.78125a5,5 0 0 1 5,5v11a5,5 0 0 1 -5,5h-26.78125a5,5 0 0 1 -5,-5v-11a5,5 0 0 1 5,-5z" style="stroke: rgb(0, 0, 0); fill: rgb(112, 41, 33); stroke-width: 0;"/><text x="6" y="15" style="font-family: -apple-system, BlinkMacSystemFont, &quot;Segoe WPC&quot;, &quot;Segoe UI&quot;, Ubuntu, &quot;Droid Sans&quot;, sans-serif, &quot;PingFang SC&quot;; font-size: 11px; text-rendering: geometricprecision; user-select: none; fill: rgb(255, 255, 255);">Relu</text><title>/Relu_1</title></g><path class="node node-border" d="M5,0h26.78125a5,5 0 0 1 5,5v11a5,5 0 0 1 -5,5h-26.78125a5,5 0 0 1 -5,-5v-11a5,5 0 0 1 5,-5z" style="stroke: rgb(51, 51, 51); fill: none; stroke-width: 1px;"/></g><g id="node-name-/fc5/Gemm" class="node graph-node" style="" transform="translate(49.046875,706)"><g class="node-item node-item-type node-item-type-layer" transform="translate(0,0)"><path d="M5,0h67.328125a5,5 0 0 1 5,5v16a0,0 0 0 1 0,0h-77.328125a0,0 0 0 1 0,0v-16a5,5 0 0 1 5,-5z" style="stroke: rgb(0, 0, 0); fill: rgb(51, 85, 136); stroke-width: 0;"/><text x="6" y="15" style="font-family: -apple-system, BlinkMacSystemFont, &quot;Segoe WPC&quot;, &quot;Segoe UI&quot;, Ubuntu, &quot;Droid Sans&quot;, sans-serif, &quot;PingFang SC&quot;; font-size: 11px; text-rendering: geometricprecision; user-select: none; fill: rgb(255, 255, 255);">Gemm</text><title>/fc5/Gemm</title></g><g class="node-argument-list" transform="translate(0,21)"><path d="M0,0h77.328125a0,0 0 0 1 0,0v27a5,5 0 0 1 -5,5h-67.328125a5,5 0 0 1 -5,-5v-27a0,0 0 0 1 0,0z" style="stroke: rgb(0, 0, 0); fill: rgb(255, 255, 255); stroke-width: 0;"/><g class="node-argument"><rect rx="3" ry="3" x="3" y="3" width="71.328125" height="13" style="fill: transparent;"/><text xml:space="preserve" x="6" y="13" style="font-family: -apple-system, BlinkMacSystemFont, &quot;Segoe WPC&quot;, &quot;Segoe UI&quot;, Ubuntu, &quot;Droid Sans&quot;, sans-serif, &quot;PingFang SC&quot;; font-size: 9px; font-weight: normal; text-rendering: geometricprecision; user-select: none;"><title>float32[784,400]</title><tspan style="font-weight: bold;">B</tspan><tspan>〈784×400〉</tspan></text></g><g class="node-argument"><rect rx="3" ry="3" x="3" y="16" width="71.328125" height="13" style="fill: transparent;"/><text xml:space="preserve" x="6" y="26" style="font-family: -apple-system, BlinkMacSystemFont, &quot;Segoe WPC&quot;, &quot;Segoe UI&quot;, Ubuntu, &quot;Droid Sans&quot;, sans-serif, &quot;PingFang SC&quot;; font-size: 9px; font-weight: normal; text-rendering: geometricprecision; user-select: none;"><title>float32[784]</title><tspan style="font-weight: bold;">C</tspan><tspan>〈784〉</tspan></text></g><line class="node" x1="0" x2="77.328125" y1="0" y2="0" style="stroke: rgb(51, 51, 51); fill: none; stroke-width: 1px;"/></g><path class="node node-border" d="M5,0h67.328125a5,5 0 0 1 5,5v43a5,5 0 0 1 -5,5h-67.328125a5,5 0 0 1 -5,-5v-43a5,5 0 0 1 5,-5z" style="stroke: rgb(51, 51, 51); fill: none; stroke-width: 1px;"/></g><g id="node-name-/Sigmoid" class="node graph-node" style="" transform="translate(59.4921875,779)"><g class="node-item node-item-type node-item-type-activation" transform="translate(0,0)"><path d="M5,0h46.4375a5,5 0 0 1 5,5v11.041015625a5,5 0 0 1 -5,5h-46.4375a5,5 0 0 1 -5,-5v-11.041015625a5,5 0 0 1 5,-5z" style="stroke: rgb(0, 0, 0); fill: rgb(112, 41, 33); stroke-width: 0;"/><text x="6" y="15" style="font-family: -apple-system, BlinkMacSystemFont, &quot;Segoe WPC&quot;, &quot;Segoe UI&quot;, Ubuntu, &quot;Droid Sans&quot;, sans-serif, &quot;PingFang SC&quot;; font-size: 11px; text-rendering: geometricprecision; user-select: none; fill: rgb(255, 255, 255);">Sigmoid</text><title>/Sigmoid</title></g><path class="node node-border" d="M5,0h46.4375a5,5 0 0 1 5,5v11.041015625a5,5 0 0 1 -5,5h-46.4375a5,5 0 0 1 -5,-5v-11.041015625a5,5 0 0 1 5,-5z" style="stroke: rgb(51, 51, 51); fill: none; stroke-width: 1px;"/></g><g class="node" style="" transform="translate(73.8671875,842.041015625)"><g class="node-item graph-item-output" transform="translate(0,0)"><path d="M5,0h17.6875a5,5 0 0 1 5,5v11a5,5 0 0 1 -5,5h-17.6875a5,5 0 0 1 -5,-5v-11a5,5 0 0 1 5,-5z" style="stroke: rgb(0, 0, 0); fill: rgb(238, 238, 238); stroke-width: 0;"/><text x="6" y="15" style="font-family: -apple-system, BlinkMacSystemFont, &quot;Segoe WPC&quot;, &quot;Segoe UI&quot;, Ubuntu, &quot;Droid Sans&quot;, sans-serif, &quot;PingFang SC&quot;; font-size: 11px; text-rendering: geometricprecision; user-select: none;">24</text><title>float32[16,784]</title></g><path class="node node-border" d="M5,0h17.6875a5,5 0 0 1 5,5v11a5,5 0 0 1 -5,5h-17.6875a5,5 0 0 1 -5,-5v-11a5,5 0 0 1 5,-5z" style="stroke: rgb(51, 51, 51); fill: none; stroke-width: 1px;"/></g><g class="node" style="" transform="translate(240.0546875,529)"><g class="node-item graph-item-output" transform="translate(0,0)"><path d="M5,0h20.125a5,5 0 0 1 5,5v11a5,5 0 0 1 -5,5h-20.125a5,5 0 0 1 -5,-5v-11a5,5 0 0 1 5,-5z" style="stroke: rgb(0, 0, 0); fill: rgb(238, 238, 238); stroke-width: 0;"/><text x="6" y="15" style="font-family: -apple-system, BlinkMacSystemFont, &quot;Segoe WPC&quot;, &quot;Segoe UI&quot;, Ubuntu, &quot;Droid Sans&quot;, sans-serif, &quot;PingFang SC&quot;; font-size: 11px; text-rendering: geometricprecision; user-select: none;">mu</text><title>float32[16,3]</title></g><path class="node node-border" d="M5,0h20.125a5,5 0 0 1 5,5v11a5,5 0 0 1 -5,5h-20.125a5,5 0 0 1 -5,-5v-11a5,5 0 0 1 5,-5z" style="stroke: rgb(51, 51, 51); fill: none; stroke-width: 1px;"/></g><g class="node" style="" transform="translate(154.40625,301.4794921875)"><g class="node-item graph-item-output" transform="translate(0,0)"><path d="M5,0h43.25a5,5 0 0 1 5,5v11.041015625a5,5 0 0 1 -5,5h-43.25a5,5 0 0 1 -5,-5v-11.041015625a5,5 0 0 1 5,-5z" style="stroke: rgb(0, 0, 0); fill: rgb(238, 238, 238); stroke-width: 0;"/><text x="6" y="15" style="font-family: -apple-system, BlinkMacSystemFont, &quot;Segoe WPC&quot;, &quot;Segoe UI&quot;, Ubuntu, &quot;Droid Sans&quot;, sans-serif, &quot;PingFang SC&quot;; font-size: 11px; text-rendering: geometricprecision; user-select: none;">log_var</text><title>float32[16,3]</title></g><path class="node node-border" d="M5,0h43.25a5,5 0 0 1 5,5v11.041015625a5,5 0 0 1 -5,5h-43.25a5,5 0 0 1 -5,-5v-11.041015625a5,5 0 0 1 5,-5z" style="stroke: rgb(51, 51, 51); fill: none; stroke-width: 1px;"/></g><g class="node" style="" transform="translate(145.2109375,608)"><g class="node-item graph-item-output" transform="translate(0,0)"><path d="M5,0h90.109375a5,5 0 0 1 5,5v11a5,5 0 0 1 -5,5h-90.109375a5,5 0 0 1 -5,-5v-11a5,5 0 0 1 5,-5z" style="stroke: rgb(0, 0, 0); fill: rgb(238, 238, 238); stroke-width: 0;"/><text x="6" y="15" style="font-family: -apple-system, BlinkMacSystemFont, &quot;Segoe WPC&quot;, &quot;Segoe UI&quot;, Ubuntu, &quot;Droid Sans&quot;, sans-serif, &quot;PingFang SC&quot;; font-size: 11px; text-rendering: geometricprecision; user-select: none;">onnx::Gemm_20</text><title>float32[16,3]</title></g><path class="node node-border" d="M5,0h90.109375a5,5 0 0 1 5,5v11a5,5 0 0 1 -5,5h-90.109375a5,5 0 0 1 -5,-5v-11a5,5 0 0 1 5,-5z" style="stroke: rgb(51, 51, 51); fill: none; stroke-width: 1px;"/></g></g></g></svg>